# xmcd CD database file
#
# Track frame offsets:
#	150
#	15219
#	29196
#	44734
#	60112
#	73540
#	88307
#	102293
#	116543
#	129279
#	143870
#	158142
#	171417
#	185617
#	199773
#	212964
#	226527
#	237590
#	249248
#	262477
#	278770
#	292150
#	306098
#
# Disc length: 4180 seconds
#
# Revision: 0
# Processed by: cddbd v1.5.2PL0 Copyright (c) Steve Scherf et al.
# Submitted via: CDex 1.51
#
DISCID=59105217
DTITLE=Lars Gullin - vol10 - More Sideman
DYEAR=1956
DGENRE=Jazz
TTITLE0=Moon over Miami
TTITLE1=Twilight Time
TTITLE2=Do You Wanna Jump, Children
TTITLE3=Lady Estelle's Dream
TTITLE4=Ablution
TTITLE5=Lullaby of the Leaves
TTITLE6=Giro
TTITLE7=I'll Remember April
TTITLE8='S Wonderful
TTITLE9=Ablution
TTITLE10='Deed I Do
TTITLE11=Over the Rainbow
TTITLE12=Lullaby in Rhythm
TTITLE13=He's Funny That Way
TTITLE14=Norinism
TTITLE15=Red Devil Blues
TTITLE16=Opus What?
TTITLE17=Love Walked In
TTITLE18=I'll Remember April
TTITLE19=Hershey Bar
TTITLE20=Song of the Volga Boatmen
TTITLE21=Without a Song
TTITLE22=Not Really the Blues
EXTD=YEAR: 1956
EXTT0=
EXTT1=
EXTT2=
EXTT3=
EXTT4=
EXTT5=
EXTT6=
EXTT7=
EXTT8=
EXTT9=
EXTT10=
EXTT11=
EXTT12=
EXTT13=
EXTT14=
EXTT15=
EXTT16=
EXTT17=
EXTT18=
EXTT19=
EXTT20=
EXTT21=
EXTT22=
PLAYORDER=
